# xmcd
# 
# Track frame offsets:
#     187
#     5302
#     28572
#     53607
#     75864
#     102212
#     121894
#     148494
#     170302
#     190662
# 
# Disc length: 2837
# 
# Revision: 7
# Processed by: cddbd v1.5.2PL0 Copyright (c) Steve Scherf et al.
# Submitted via: fre:ac v1.0.31
# 
DISCID=6f0b130a
DTITLE=広瀬香美 - Harvest
DYEAR=1994
DGENRE=JPop
TTITLE0=Beginning
TTITLE1=素敵なタイミング
TTITLE2=フォーチュンクッキー
TTITLE3=幸せをつかみたい [ALBUM VERSION]
TTITLE4=愛の力
TTITLE5=MONEY
TTITLE6=LUCKY GIRL ～信じる者はすくわれる～ [OTANOSHIMI VERSION]
TTITLE7=春よ来い
TTITLE8=ドラマティックに恋して [L. A. MIX]
TTITLE9=Harvest
EXTD=セルフプロデュースによる4thアルバム
EXTT0=
EXTT1=
EXTT2=
EXTT3=
EXTT4=
EXTT5=
EXTT6=
EXTT7=
EXTT8=
EXTT9=
PLAYORDER=
